<svg width="192" height="173" viewBox="0 0 192 173" fill="none" xmlns="http://www.w3.org/2000/svg">
<path d="M159.181 147.087C165.46 153.984 176.071 159.577 176.071 159.577C175.64 157.218 174.778 154.959 173.529 152.911C171.634 150.103 153.618 137.785 153.618 137.785C156.575 138.957 159.595 139.966 162.663 140.808C165.646 141.449 187.153 146.022 187.153 146.022C185.93 145.494 184.769 144.832 183.693 144.048C181.754 142.67 174.789 140.153 165.094 136.675C155.4 133.197 142.305 126.315 142.305 126.315C142.305 126.315 146.824 126.121 150.232 126.114C153.64 126.107 190.218 135.565 190.218 135.565C187.837 134.295 185.37 133.193 182.835 132.266C178.592 130.709 176.869 130.434 172.596 128.877C167.361 126.855 161.959 125.295 156.452 124.215C150.091 123.045 129.606 116.543 128.987 116.357C138.942 125.295 146.094 131.923 146.094 131.923C146.094 131.923 152.872 140.198 159.181 147.087Z" fill="#5DB957"/>
<path d="M64.5567 38.0584C64.5567 38.0584 77.7261 31.8693 88.7404 31.4299C99.7546 30.9905 135.482 28.6667 135.482 28.6667C135.482 28.6667 125.937 27.7209 119.762 28.1975C113.588 28.6742 109.434 27.6613 104.848 27.3038C100.262 26.9463 89.1878 27.3783 84.8403 26.6931C80.4927 26.0079 73.386 29.7914 64.3107 31.5714C55.2353 33.3514 41.5066 39.6746 41.5066 39.6746C41.5066 39.6746 37.778 34.6175 39.0532 33.5525C40.3284 32.4875 43.1994 31.1543 49.0906 29.0466C56.628 26.3183 64.3017 23.9815 72.081 22.0456C82.1706 19.4985 125.363 17.6142 125.363 17.6142L98.0246 15.6405C98.0246 15.6405 86.1826 17.9195 80.1273 17.5099C74.0721 17.1003 60.5075 19.1484 50.6417 21.3753C41.4768 23.4458 30.0897 29.7914 28.5386 30.7074C30.1568 31.9661 31.7228 33.1578 33.1993 34.2526C37.992 37.9372 42.5474 41.9197 46.8385 46.1766C49.5399 44.2893 52.4167 42.6656 55.4292 41.328C62.0213 38.2074 64.5567 38.0584 64.5567 38.0584Z" fill="#5DB957"/>
<path d="M157.145 119.91C164.379 120.655 192 120.856 192 120.856C192 120.856 174.61 117.251 171.977 116.849C169.345 116.447 163.864 115.94 153.864 115.635C143.864 115.329 138.092 113.185 131.768 111.121C127.423 109.625 123.21 107.769 119.173 105.573C119.173 105.573 127.1 105.379 131.485 106.057C135.87 106.735 141.03 107.003 157.257 108.82C173.484 110.637 191.374 108.753 191.374 108.753L185.93 106.824C183.208 105.863 181.321 106.467 177.585 106.243C173.849 106.02 165.042 106.087 158.592 104.903C152.141 103.718 148.719 103.726 135.676 102.229C122.633 100.732 109.061 97.909 109.061 97.909C112.835 97.6343 116.622 97.5646 120.404 97.7005C125.571 97.9686 125.34 98.2889 130.844 98.7879C136.347 99.2869 140.792 97.1047 150.061 96.3971C159.33 95.6896 187.071 91.5858 187.071 91.5858C187.071 91.5858 181.903 91.3177 179.614 91.139C177.324 90.9602 164.312 91.4443 159.658 92.5168C155.005 93.5893 134.393 94.4979 121.671 93.2616C114.52 92.599 107.442 91.2979 100.523 89.3738C100.523 89.3738 108.636 90.2825 112.275 89.9473C115.914 89.6122 123.29 89.5153 132.693 87.929C142.097 86.3426 179.561 80.8908 179.561 80.8908C179.561 80.8908 162.507 80.8908 158.868 81.2483C155.229 81.6058 148.957 81.5015 131.276 84.4806C113.595 87.4597 93.3713 82.3431 93.3713 82.3431C93.3713 82.3431 102.089 81.7324 106.6 81.5387C113.448 81.3548 120.274 80.6803 127.026 79.5204C136.973 77.8372 173.797 71.9236 173.797 71.9236C173.797 71.9236 154.11 71.5438 145.952 72.0651C137.794 72.5864 137.108 73.5547 122.268 76.6232C107.428 79.6917 85.4295 75.7294 85.4295 75.7294C85.4295 75.7294 93.0805 73.8749 95.1984 72.9514C97.3162 72.0279 106.384 70.2106 114.46 69.1381C122.536 68.0656 163.573 60.3273 163.573 60.3273C163.573 60.3273 149.144 60.7742 147.391 60.4986C145.639 60.2231 136.049 60.7072 129.322 61.2434C122.596 61.7797 110.478 65.8387 100.523 67.5145C93.2868 68.6167 85.9947 69.3129 78.6807 69.5999C78.6807 69.5999 80.0081 68.9817 82.3571 67.7305C88.1608 64.7163 94.2013 62.1805 100.418 60.1486C109.307 57.229 154.513 47.0553 154.513 47.0553C154.513 47.0553 119.3 50.7196 108.278 52.5816C97.2565 54.4435 88.7404 60.1188 82.0737 62.6585C75.407 65.1982 71.7977 64.1481 71.7977 64.1481L63.386 58.1377C65.8951 57.7079 68.3503 57.0087 70.709 56.0523C73.1418 54.976 75.4965 53.7317 77.756 52.3284C81.9022 49.9302 86.466 48.3065 90.1498 46.5489C93.8337 44.7912 100.008 44.3145 106.876 42.8845C113.744 41.4546 146.839 38.7063 146.839 38.7063C146.839 38.7063 138.815 38.3563 134.759 37.9019C130.702 37.4476 127.384 38.0062 122.864 38.1999C118.345 38.3935 111.067 39.034 102.909 39.5554C94.7509 40.0767 95.3997 40.531 84.2661 43.823C73.1326 47.1149 60.0601 51.8815 55.5858 50.6452C53.0927 49.8968 50.6817 48.8987 48.3896 47.666C57.0847 56.1044 66.4659 65.6749 79.9335 75.223C92.7375 84.3242 114.028 102.959 128.994 116.387C129.24 116.439 135.877 117.817 142.76 118.89C149.77 119.992 149.889 119.113 157.145 119.91Z" fill="#5DB957"/>
<path d="M0.320659 0L0 0.134061V6.94882L4.04925 4.7964C9.31402 2.00346 12.1701 1.96622 18.0986 0H0.320659Z" fill="#5DB957"/>
<path d="M25.6602 21.5987C27.6885 20.1091 28.3298 20.5858 29.8958 19.7516C31.4618 18.9175 41.1338 15.5883 44.6834 14.702C50.1638 13.4959 55.7016 12.5662 61.2756 11.9165C67.1146 11.2164 114.095 9.55555 114.095 9.55555C114.095 9.55555 94.9075 7.10522 91.7233 6.79241C88.5391 6.4796 80.9328 6.90413 77.756 6.59132C74.5792 6.27851 62.2152 7.21694 60.2391 7.26907C53.3481 7.64751 46.5825 9.26741 40.2688 12.0506C31.0144 16.1618 14.0046 18.1801 14.0046 18.1801L7.1067 12.8028C10.5629 12.5503 13.9983 12.0676 17.3901 11.3579C22.0434 10.2854 48.3076 4.16333 59.1503 1.19165C61.6953 0.579544 64.287 0.18094 66.8984 0L51.0071 0C45.0414 1.15441 38.0316 2.48012 31.1561 3.64198C17.7332 5.87633 4.76514 7.1648 0.246094 7.56699C6.21184 12.6092 17.3007 21.9115 26.8831 29.4189L22.2522 25.0247C23.2196 23.7269 24.3671 22.5733 25.6602 21.5987Z" fill="#5DB957"/>
<path d="M31.8345 122.144C32.0086 123.321 32.3898 124.459 32.9605 125.503C32.9605 125.503 32.4683 124.043 31.8345 122.144Z" fill="#5DB957"/>
<path d="M143.178 129.905L129.919 117.869C133.648 123.582 147.384 144.272 152.067 148.852C157.518 154.185 165.833 163.003 165.833 163.003C165.833 163.003 159.77 152.375 155.393 146.856C151.015 141.337 143.178 129.905 143.178 129.905Z" fill="#5DB957"/>
<path d="M135.721 139.676C142.111 153.939 143.968 158.169 147.153 161.893C149.065 164.128 151.218 166.147 153.573 167.911C153.573 167.911 146.094 150.446 141.366 139.274C138.057 131.846 134.217 124.665 129.874 117.787L119.509 108.381C120.896 110.816 129.859 126.546 135.721 139.676Z" fill="#5DB957"/>
<path d="M69.747 77.2339C70.7985 73.793 72.2675 66.6356 72.3868 66.0622L36.8907 35.9059L0 6.62109V12.6613C0.783004 16.8618 1.42432 24.1235 0.469802 35.8315C0.313202 37.7679 0.156601 39.5554 0 41.3279V75.223C2.53544 82.9836 6.24912 91.9061 6.24912 91.9061C6.24912 91.9061 5.06342 73.078 4.60854 55.2628C4.15365 37.4476 5.0336 12.3038 5.0336 12.3038C5.0336 12.3038 9.91805 10.911 11.0366 39.4064C12.1552 67.9018 9.54519 81.1142 10.0672 85.8659C10.5892 90.6176 13.9226 103.681 13.9226 103.681C13.9226 103.681 13.1321 75.3794 15.7272 58.7856C18.3223 42.1919 13.9897 18.1801 13.9897 18.1801C13.9897 18.1801 23.863 27.5942 21.1187 55.3224C18.3745 83.0506 17.6437 97.0898 18.203 100.404C18.7623 103.718 21.3201 113.81 21.3201 113.81C21.3201 113.81 23.6542 80.4662 25.5259 69.6446C26.9502 61.3998 26.913 48.4555 26.3313 41.3428C29.3142 54.3318 32.7743 71.8789 32.0882 81.6132C30.9249 98.2814 28.5013 109.17 29.0606 112.514C29.8133 115.771 30.7393 118.986 31.8347 122.144C31.2978 119.426 31.0144 114.905 32.2821 107.993C34.6535 95.0938 40.5671 77.9116 38.3299 64.6545C36.0927 51.3974 28.3373 30.8116 28.3373 30.8116L40.224 42.1621C40.224 42.1621 43.095 49.0588 42.3866 65.0865C41.6782 81.1142 38.4268 90.4612 38.218 101.007C38.0092 111.553 39.9332 131.387 39.9332 131.387C39.9332 131.387 40.9474 108.783 42.5432 99.7114C44.139 90.64 48.2256 79.4384 49.7692 68.3859C51.3128 57.3333 46.3613 46.5265 46.3613 46.5265C46.3613 46.5265 57.9125 61.0721 56.7342 70.9032C55.556 80.7344 53.1324 91.6752 50.5298 104.895C48.8773 113.935 48.0462 123.106 48.0466 132.296C48.0093 133.726 50.9698 141.173 50.4627 139.84C49.9556 138.507 52.3419 110.555 55.3621 101.529C58.3823 92.5019 58.9714 84.1604 60.2987 76.8392C61.6261 69.5179 57.4874 53.453 57.4874 53.453C57.4874 53.453 68.2481 64.9897 67.562 65.9579C66.876 66.9261 66.6896 69.2275 63.0877 94.8331C59.4859 120.439 60.7611 131.581 61.5068 135.997C62.2525 140.414 65.5933 150.081 65.5933 150.081C65.5933 150.081 62.9237 129.227 65.0564 113.244C67.1892 97.2611 68.6508 80.8237 69.747 77.2339Z" fill="#5DB957"/>
<path d="M22.2524 25.0247C22.2524 25.0247 22.3196 25.2555 22.4314 25.6801L22.2524 25.0247Z" fill="#5DB957"/>
<path d="M72.4019 65.9951V66.0398L76.8762 69.8307C75.2281 62.7702 72.4019 65.9951 72.4019 65.9951Z" fill="#5DB957"/>
<path d="M76.8611 69.8308C77.4428 72.378 77.8753 76.2434 77.9648 82.0974C78.2854 104.195 74.445 121.884 74.6463 129.801C74.8477 137.718 78.8895 156.613 78.8895 156.613C78.8895 156.613 75.4368 132.78 79.1878 121.347C82.9387 109.915 84.4823 92.0551 84.4078 84.6892L84.2959 77.3233C84.2959 77.3233 91.7531 89.4186 90.5749 102.646C89.3966 115.873 84.6091 136.318 85.0715 142.484C85.5338 148.651 91.5145 162.132 91.5145 162.132C91.5145 162.132 90.381 145.285 91.686 131.149C92.991 117.013 94.4973 107.383 94.5346 102.549C94.5719 97.7155 92.9835 84.9201 92.9835 84.9201C92.9835 84.9201 97.1819 87.8992 98.6883 103.54C100.195 119.18 101.179 130.099 100.135 135.67C99.091 141.241 99.3892 149.716 100.485 152.941C101.582 156.166 105.892 166.578 105.892 166.578C105.892 166.578 103.006 152.859 104.826 140.056C106.414 128.885 106.138 113.155 105.698 106.124C107.48 113.907 109.591 124.245 110.441 132.869C112.037 149.068 113.67 160.426 115.474 162.66C117.279 164.895 120.463 168.619 120.463 168.619C120.463 168.619 117.525 159.786 116.779 151.936C116.034 144.086 116.123 126.203 114.497 118.242C112.872 110.28 111.052 101.208 111.052 101.208C115.966 111.696 119.728 122.683 122.275 133.979C126.131 151.787 126.929 158.184 129.427 162.876C131.293 166.155 133.527 169.211 136.086 171.985C136.086 171.985 131.306 155.466 130.038 146.305C128.771 137.144 126.541 123.887 125.199 120.982C123.983 118.361 120.165 109.922 119.442 108.321L79.0461 71.6928L76.8611 69.8308Z" fill="#5DB957"/>
<g opacity="0.3">
<path d="M76.8613 69.8308C77.443 72.378 77.8755 76.2434 77.965 82.0974C77.965 84.0785 77.965 86.0298 77.965 87.9365C79.971 90.1708 81.962 92.3381 83.9307 94.431C84.2514 90.4911 84.3856 87.0651 84.3558 84.7116L84.2439 77.3457C84.2439 77.3457 91.0747 88.4429 90.6198 101.03C91.8577 102.182 93.1229 103.314 94.4155 104.426C94.4155 103.763 94.4826 103.145 94.4826 102.601C94.4826 97.7676 92.9315 84.9722 92.9315 84.9722C92.9315 84.9722 97.1299 87.9514 98.6363 103.592C98.7854 105.193 98.9346 106.727 99.0763 108.232C101.261 109.922 103.551 111.568 105.937 113.17C105.877 110.377 105.773 107.956 105.661 106.109C106.22 108.567 106.817 111.285 107.398 114.123C109.641 115.568 112.007 116.98 114.498 118.361V118.249C112.872 110.287 111.052 101.216 111.052 101.216C114.004 107.497 116.537 113.966 118.636 120.58C121.013 121.797 123.521 122.983 126.161 124.14C125.926 123.073 125.604 122.027 125.199 121.012C123.983 118.391 120.165 109.952 119.442 108.351L79.0463 71.6928L76.8613 69.8308Z" fill="black"/>
<path d="M72.4019 65.9952V66.0399L76.8762 69.8309C75.2281 62.7703 72.4019 65.9952 72.4019 65.9952Z" fill="black"/>
<path d="M119.442 108.344L119.509 108.403L119.315 108.075L119.442 108.344Z" fill="black"/>
<path d="M0 10.9558V12.6614C0.231173 13.853 0.447431 15.3426 0.611489 17.1301L4.78751 20.9135C4.86208 17.9344 4.92919 15.5437 4.98139 14.0467L0 10.9558Z" fill="black"/>
<path d="M128.689 125.22C130.975 126.213 133.372 127.167 135.877 128.08C133.409 123.552 131.097 119.761 129.874 117.81L119.509 108.403C120.396 109.952 124.386 116.931 128.689 125.22Z" fill="black"/>
<path d="M24.9068 26.3952L15.9731 20.854C18.1763 24.6398 19.6911 28.7851 20.4475 33.0982C23.7883 35.5039 27.8524 38.5277 32.3044 42.0356C30.1567 35.6156 28.3371 30.8117 28.3371 30.8117L40.2239 42.1622C40.2239 42.1622 41.2455 44.6349 41.9241 50.0569C44.3925 52.187 46.8981 54.4288 49.3813 56.76C48.7612 53.2426 47.743 49.807 46.3462 46.5192C46.3462 46.5192 52.7296 54.5405 55.5186 62.7108C57.0771 64.2822 58.6282 65.891 60.142 67.5221C59.5191 62.7833 58.6278 58.0837 57.4724 53.4457C57.4724 53.4457 68.248 64.9898 67.5619 65.958C67.1369 66.5464 66.9057 67.6338 65.9735 74.1506L69.5008 78.2022C69.5828 77.8149 69.6648 77.4574 69.7469 77.2117C70.7983 73.7708 72.2674 66.6134 72.3867 66.0399L36.8905 35.9061L24.9068 26.3952ZM22.2521 25.0248C22.2521 25.0248 22.3192 25.2557 22.4311 25.6802L22.2521 25.0248Z" fill="black"/>
<path d="M14.2582 19.7963L7.88232 15.8416C8.93337 19.0132 9.63599 22.2897 9.97779 25.6131L11.3648 26.8718C11.3648 26.8718 12.9234 27.8698 15.5707 29.6945C15.1009 25.3226 14.5714 21.7402 14.2582 19.7963Z" fill="black"/>
<path d="M129.934 117.869C131.299 119.947 133.968 123.984 137.048 128.52L137.69 128.758C139.927 129.57 142.022 130.344 144.028 131.097L143.193 129.905L129.934 117.869Z" fill="black"/>
<path d="M129.874 117.81L129.934 117.869L128.972 116.38C128.972 116.38 129.308 116.931 129.874 117.81Z" fill="black"/>
</g>
<path d="M151.381 135.282C143.051 128.11 143.178 123.991 78.7031 69.5925C49.0086 44.5604 22.4387 22.8872 0 5.07947V9.81628C13.6988 20.6007 28.2702 32.4577 43.5201 45.4318C134.192 122.345 155.378 141.181 155.378 141.181C154.478 138.955 153.116 136.944 151.381 135.282Z" fill="#5DB957"/>
<g opacity="0.3">
<path d="M100.912 153.129C102.031 156.346 106.333 166.698 106.333 166.698C105.33 161.41 104.778 156.045 104.685 150.663C103.452 147.161 101.887 143.784 100.01 140.579C99.7114 145.435 100.084 150.73 100.912 153.129Z" fill="black"/>
<path d="M155.155 151.579C160.301 156.793 166.341 163.131 166.341 163.131C166.341 163.131 162.12 155.743 158.205 150.082C157.512 149.446 156.708 148.942 155.834 148.593C155.565 149.554 155.372 150.566 155.155 151.579Z" fill="black"/>
<path d="M39.5544 93.6205C40.2181 99.2361 41.3441 104.993 41.7393 110.602C40.8594 108.762 39.8676 106.498 38.667 104.271C38.8087 115.174 40.3896 131.508 40.3896 131.508C40.3896 131.508 41.4038 108.903 42.9996 99.832C43.1488 98.9829 43.3426 98.1041 43.5291 97.2252C42.6149 95.6376 41.2246 94.3767 39.5544 93.6205Z" fill="black"/>
<path d="M61.9257 136.118C62.6715 140.542 66.0123 150.202 66.0123 150.202C66.0123 150.202 63.3426 129.348 65.4754 113.365C65.7662 111.22 66.0421 109.067 66.3031 106.937C65.5847 103.423 64.5719 99.9746 63.2755 96.6294C59.9272 121.043 61.1949 131.798 61.9257 136.118Z" fill="black"/>
<path d="M120.904 168.784C119.226 163.521 118.018 158.12 117.295 152.644C116.696 151.902 116.024 151.221 115.289 150.611C115.379 154 115.446 157.806 115.289 161.582C115.445 162.021 115.663 162.434 115.938 162.811C117.72 165.067 120.904 168.784 120.904 168.784Z" fill="black"/>
<path d="M14.7519 74.0326L14.6252 73.9135C12.7087 76.3117 12.5073 79.7004 11.9704 82.7615C11.6423 76.5798 12.0673 68.8564 11.6796 61.3267C11.3216 75.2168 10.1881 82.6796 10.5312 85.9864C11.0457 90.7307 14.3865 103.802 14.3865 103.802C14.3865 103.802 13.9615 88.6676 14.7519 74.0326Z" fill="black"/>
<path d="M151.561 166.006C153.052 167.302 154.052 168.032 154.052 168.032C154.052 168.032 153.351 166.408 152.255 163.846C152.038 164.568 151.837 165.291 151.561 166.006Z" fill="black"/>
<path d="M134.492 169.752C135.67 171.197 136.542 172.12 136.542 172.12C136.542 172.12 135.909 169.886 135.051 166.698C134.865 167.696 134.686 168.732 134.492 169.752Z" fill="black"/>
<path d="M5.01998 53C4.84101 54.9066 4.67695 56.7984 4.34138 58.5784C3.28992 64.1717 0.590417 71.1727 1.05276 77.1235C3.536 84.4 6.7053 92.0191 6.7053 92.0191C6.7053 92.0191 5.51961 73.1985 5.06472 55.3833C5.04981 54.6087 5.0349 53.8193 5.01998 53Z" fill="black"/>
<path d="M32.3057 122.265C32.4839 123.427 32.8597 124.551 33.4168 125.587C33.4168 125.587 32.9321 124.179 32.3057 122.265Z" fill="black"/>
<path d="M18.6593 100.525C19.2186 103.831 21.7764 113.931 21.7764 113.931C21.7764 113.931 22.731 100.346 23.9017 87.7069C22.5801 84.8581 21.0859 82.0923 19.4274 79.4249C18.4953 91.5649 18.2939 98.3573 18.6593 100.525Z" fill="black"/>
<path d="M32.7382 108.114C33.2677 105.135 34.0134 101.947 34.7591 98.6476C33.7395 97.5301 32.5076 96.6263 31.1349 95.9888C30.1282 104.628 29.1439 110.348 29.5391 112.583C30.2955 115.857 31.2265 119.089 32.3281 122.265C31.7763 119.554 31.4631 115.033 32.7382 108.114Z" fill="black"/>
<path d="M78.9504 124.142C78.2047 121.118 77.459 117.215 76.5865 113.327C75.7662 120.567 75.0056 126.287 75.0951 129.921C75.289 137.846 79.3382 156.733 79.3382 156.733C79.3382 156.733 76.3703 136.229 78.9504 124.142Z" fill="black"/>
<path d="M85.2315 138C85.029 139.528 84.9592 141.07 85.0227 142.61C85.4925 148.777 91.4657 162.258 91.4657 162.258C91.4657 162.258 91.1898 158.109 91.063 152.203C88.9303 147.63 87.0287 142.826 85.2315 138Z" fill="black"/>
</g>
</svg>
